<svg width="246" height="57" viewBox="0 0 246 57" fill="none" xmlns="http://www.w3.org/2000/svg">
<path d="M24.8182 24.4118H3V55H243L233.649 30.5294L215.468 41.5412L194.169 17.6824C187.935 17.6824 172.039 10.3412 168.714 10.3412H140.662L111.052 3L85.5974 10.3412L68.4545 30.5294L43 41.5412L24.8182 24.4118Z" fill="url(#paint0_linear_149_270)"/>
<path d="M0.333333 24.4117C0.333333 25.8845 1.52724 27.0784 3 27.0784C4.47276 27.0784 5.66667 25.8845 5.66667 24.4117C5.66667 22.939 4.47276 21.7451 3 21.7451C1.52724 21.7451 0.333333 22.939 0.333333 24.4117ZM22.1515 24.4117C22.1515 25.8845 23.3454 27.0784 24.8182 27.0784C26.2909 27.0784 27.4849 25.8845 27.4849 24.4117C27.4849 22.939 26.2909 21.7451 24.8182 21.7451C23.3454 21.7451 22.1515 22.939 22.1515 24.4117ZM3 24.9117H24.8182V23.9117H3V24.9117Z" fill="black"/>
<path d="M39.8138 41.5412C39.8138 43.0139 41.0077 44.2078 42.4805 44.2078C43.9532 44.2078 45.1471 43.0139 45.1471 41.5412C45.1471 40.0684 43.9532 38.8745 42.4805 38.8745C41.0077 38.8745 39.8138 40.0684 39.8138 41.5412ZM24.47 24.7707L42.1324 41.9001L42.8286 41.1822L25.1662 24.0528L24.47 24.7707Z" fill="black"/>
<path d="M65.7878 30.5294C65.7878 32.0022 66.9817 33.1961 68.4545 33.1961C69.9273 33.1961 71.1212 32.0022 71.1212 30.5294C71.1212 29.0567 69.9273 27.8628 68.4545 27.8628C66.9817 27.8628 65.7878 29.0567 65.7878 30.5294ZM42.6756 42.0015L68.6497 30.9898L68.2593 30.0691L42.2853 41.0808L42.6756 42.0015Z" fill="black"/>
<path d="M82.4113 10.9529C82.4113 12.4257 83.6052 13.6196 85.078 13.6196C86.5507 13.6196 87.7446 12.4257 87.7446 10.9529C87.7446 9.48018 86.5507 8.28628 85.078 8.28628C83.6052 8.28628 82.4113 9.48018 82.4113 10.9529ZM68.8357 30.853L85.4591 11.2766L84.6968 10.6293L68.0735 30.2058L68.8357 30.853Z" fill="black"/>
<path d="M137.996 10.3412C137.996 11.8139 139.19 13.0078 140.662 13.0078C142.135 13.0078 143.329 11.8139 143.329 10.3412C143.329 8.86842 142.135 7.67451 140.662 7.67451C139.19 7.67451 137.996 8.86842 137.996 10.3412ZM110.932 3.48531L140.542 10.8265L140.783 9.85587L111.172 2.51469L110.932 3.48531Z" fill="black"/>
<path d="M108.385 3C108.385 4.47276 109.579 5.66667 111.052 5.66667C112.525 5.66667 113.719 4.47276 113.719 3C113.719 1.52724 112.525 0.333333 111.052 0.333333C109.579 0.333333 108.385 1.52724 108.385 3ZM84.7023 11.4318L111.196 3.47889L110.908 2.52111L84.4148 10.4741L84.7023 11.4318Z" fill="black"/>
<path d="M166.567 10.3412C166.567 11.8139 167.761 13.0079 169.234 13.0079C170.707 13.0079 171.9 11.8139 171.9 10.3412C171.9 8.86843 170.707 7.67452 169.234 7.67452C167.761 7.67452 166.567 8.86843 166.567 10.3412ZM140.662 10.8412H169.234V9.84119H140.662V10.8412Z" fill="black"/>
<path d="M191.502 18.2941C191.502 19.7669 192.696 20.9608 194.169 20.9608C195.642 20.9608 196.835 19.7669 196.835 18.2941C196.835 16.8214 195.642 15.6275 194.169 15.6275C192.696 15.6275 191.502 16.8214 191.502 18.2941ZM169.082 10.8175L194.017 18.7705L194.321 17.8178L169.386 9.86483L169.082 10.8175Z" fill="black"/>
<path d="M212.801 41.5412C212.801 43.0139 213.995 44.2079 215.468 44.2079C216.94 44.2079 218.134 43.0139 218.134 41.5412C218.134 40.0684 216.94 38.8745 215.468 38.8745C213.995 38.8745 212.801 40.0684 212.801 41.5412ZM193.8 18.6319L215.099 41.879L215.836 41.2034L194.537 17.9564L193.8 18.6319Z" fill="black"/>
<path d="M230.983 30.5294C230.983 32.0022 232.177 33.1961 233.649 33.1961C235.122 33.1961 236.316 32.0022 236.316 30.5294C236.316 29.0567 235.122 27.8628 233.649 27.8628C232.177 27.8628 230.983 29.0567 230.983 30.5294ZM215.727 41.9689L233.908 30.9571L233.39 30.1017L215.209 41.1135L215.727 41.9689Z" fill="black"/>
<path d="M239.814 53.7765C239.814 55.2492 241.008 56.4431 242.481 56.4431C243.953 56.4431 245.147 55.2492 245.147 53.7765C245.147 52.3037 243.953 51.1098 242.481 51.1098C241.008 51.1098 239.814 52.3037 239.814 53.7765ZM233.182 30.707L242.013 53.954L242.948 53.5989L234.117 30.3519L233.182 30.707Z" fill="black"/>
<defs>
<linearGradient id="paint0_linear_149_270" x1="122.481" y1="54.3882" x2="122.481" y2="6.67059" gradientUnits="userSpaceOnUse">
<stop stop-color="#D9D9D9" stop-opacity="0.1"/>
<stop offset="1" stop-color="#82D173"/>
</linearGradient>
</defs>
</svg>
